<svg enable-background="new 0 0 453 458" viewBox="0 0 453 458" xmlns="http://www.w3.org/2000/svg"><path d="m362.1 447.6h-295.9c-30.9 0-55.9-25-55.9-55.9v-296c0-30.9 25-55.9 55.9-55.9h295.9c30.9 0 55.9 25 55.9 55.9v295.9c0 30.9-25 56-55.9 56z" fill="#2db56f"/><path d="m213.9 300.9c-8.1-.1-15.7-1.8-23-4.8-2.4-1-4.1.5-5.9 1.4-4 2.1-7.9 4.5-11.9 6.7-1.8 1-3.7 1.7-5.7.3-1.4-1-2.3-4.5-1.9-6.5 1.2-5 2.1-10.1 3.4-15 .7-2.4-1.3-3.2-2.2-4.3-6.6-8.1-11.1-17.1-12.8-27.5-.7-4.1-1.6-8.2-1.4-12.3.4-14.4 4.6-27.6 13.8-38.9 8.6-10.6 19.8-17.2 33-20.5 9.5-2.4 19.2-2.1 28.8 0 8.7 1.9 16.6 5.5 23.6 10.9 7.8 6 13.8 13.4 18 22.5 2.7 5.8 4.4 11.8 5.2 18 1.5 11.3 0 22.3-4.4 32.9-3.5 8.5-8.9 15.8-15.8 21.8-7.8 6.7-16.6 11.7-26.9 13.4-4.6.6-9.2 1.2-13.9 1.9zm0-50.4c6.2.8 12.1-5.3 11.8-11.7-.3-6.9-5-11.1-11.9-11.1-7.1 0-11.2 5.1-11.4 11.4-.1 6.3 5.1 11.9 11.5 11.4zm42.7-11.6c.8-5.7-5.2-11.4-11.4-11.4-6.3 0-11.4 5.1-11.6 11.3-.2 5.7 5.5 11.6 10.5 11.7 7.3.4 13.4-5.1 12.5-11.6zm-73.8 11.6c6.4 0 11.3-4.8 11.7-10.6.5-7.1-5.2-12.2-11.5-12.3-6.4-.1-11.5 5.3-11.5 11.1-.1 6.9 4.5 11.8 11.3 11.8z" fill="#fff"/><path d="m128.9 214.1c4-12.7 10.1-24.1 19-34 9.6-10.8 21-18.8 34.5-23.8 8-3 16.2-4.8 24.7-5.5 15.4-1.2 30.1 1.4 44.2 7.8 7.6 3.5 14.5 8 20.9 13.4 9.2 7.7 16.1 17 21.4 27.6 2.1 4.2 3.8 8.5 5.2 13 .6 1.9 1.3 2 2.9 2.1 4.6.1 8.6 1.5 12.3 4.2 5.4 4 8.3 9.6 10.3 15.8s3 12.7 2.5 19.2c-.8 10.2-3.5 19.9-10.2 28-4.4 5.3-10.1 9.1-17.4 8.9-3.2-.1-6.5-1.2-9.6-2.1-1.3-.4-1.8 0-2.5.9-4.4 5.1-8.4 10.6-13.3 15.2-8.1 7.4-17.3 13.4-27.8 17.1-3.5 1.2-7.1 2.6-10.4 3.7-.6 2.2-.8 4.6-1.8 6.7-1.4 2.9-4 4.4-7.3 4.5-7.7.1-15.5-.2-23.2.1-6.4.2-9.5-3-10.5-8.5-.6-3.6-.4-7.3 1.9-10.5 1.5-2.3 3.8-3.4 6.4-3.5 5.9-.1 11.8 0 17.7-.1 7.9-.1 15.3-2.1 22.6-4.9 11.3-4.4 20.9-11.2 29-20.1 6.3-7 11.3-15 14.4-24 1.2-3.4 1.2-7.2 1.7-10.8 1-6.2 2-12.4 2.8-18.7.3-2.1 0-4.2-.4-6.3-1.4-8.4-3.6-16.7-7.5-24.3-4.3-8.5-10-15.9-17-22.2-9.3-8.3-20.1-14-32.1-17-7.6-1.9-15.5-2.6-23.4-2.1-10.2.7-20 3.3-29.1 8-8 4.1-15.1 9.3-21.1 15.9-9.7 10.8-16.1 23.2-18.8 37.6-1.3 6.8-.8 13.4.5 20.1.9 4.8 1.4 9.8 2.1 14.7.9 6.2 1.9 12.5 3 18.7.5 3.1-.9 7.2-4 8.5-9.5 4.2-18.6 5.4-27.3-2.6-4.1-3.8-7-8.6-9-13.7-2.7-6.7-4.1-13.8-3.9-20.9.2-8.6 1.7-17.1 7-24.3 5-7.1 11.6-11.6 20.6-11.8z" fill="#fff"/><circle cx="406.2" cy="47" fill="#f00" r="36.8"/><path d="m411.2 65.1h-6.8v-25.7c-2.5 2.3-5.4 4.1-8.8 5.2v-6.2c1.8-.6 3.7-1.7 5.8-3.3s3.5-3.5 4.3-5.7h5.5z" fill="#fff"/></svg>